<?xml version="1.0" standalone="no"?>
<!DOCTYPE svg PUBLIC "-//W3C//DTD SVG 20010904//EN"
 "http://www.w3.org/TR/2001/REC-SVG-20010904/DTD/svg10.dtd">
<svg version="1.0" xmlns="http://www.w3.org/2000/svg"
 width="16.000000pt" height="16.000000pt" viewBox="0 0 16.000000 16.000000"
 preserveAspectRatio="xMidYMid meet">

<g transform="translate(0.000000,16.000000) scale(0.100000,-0.100000)"
fill="#000000" stroke="none">
<path d="M53 146 c11 -9 14 -16 7 -19 -6 -3 -6 -5 1 -3 7 1 13 10 15 19 1 12
-5 17 -19 17 -21 -1 -21 -1 -4 -14z"/>
<path d="M15 141 c-3 -5 -1 -12 5 -16 5 -3 10 -11 10 -17 0 -7 -6 -6 -15 2
-13 10 -15 9 -15 -11 0 -19 2 -21 10 -9 5 8 10 11 10 5 0 -5 5 -4 12 3 8 8 8
15 0 25 -7 8 -9 17 -5 20 3 4 4 7 0 7 -3 0 -8 -4 -12 -9z"/>
<path d="M97 141 c2 -2 -2 -10 -9 -18 -8 -10 -8 -17 1 -26 10 -9 11 -8 6 4 -4
10 -3 19 2 22 4 3 9 -8 10 -24 1 -17 -2 -27 -7 -24 -6 4 -10 -1 -10 -9 0 -16
-31 -22 -44 -9 -3 4 -13 8 -22 9 -12 2 -13 -1 -3 -12 26 -31 85 -10 102 36 3
8 6 -4 6 -26 1 -27 7 -46 19 -55 14 -11 15 -11 5 1 -7 8 -13 31 -13 51 0 26
-7 46 -22 61 -13 13 -22 22 -21 19z"/>
</g>
</svg>
